<svg width="420" height="236" viewBox="0 0 420 236" fill="none" xmlns="http://www.w3.org/2000/svg">
<path d="M141.132 48.4971C143.497 71.0464 145.891 93.5928 148.25 116.143C150.863 141.122 149.045 119.745 148.495 120.295" stroke="#2F333F" stroke-width="1.10458" stroke-linecap="round"/>
<path d="M148.864 127.291C154.187 126.062 159.71 123.825 164.921 122.3C171.387 120.407 178.267 118.562 184.599 116.224C194.256 112.66 202.586 107.595 209.861 100.208C214.258 95.744 220.301 88.0324 223.035 82.2074C224.109 79.9173 224.855 77.4227 225.101 74.9049C225.592 69.8633 223.697 68.0803 219.516 65.5568C213.481 61.9138 203.648 58.8605 197.404 56.8224C185.274 52.8628 172.805 48.8379 160.073 47.3107C156.157 46.841 151.025 46.8576 146.982 47.1471C145.623 47.2444 143.388 46.8187 143.014 48.1289C142.917 48.4671 143.066 48.841 142.604 48.8653C141.799 48.9077 139.317 48.8697 141.5 49.2335" stroke="#2F333F" stroke-width="1.10458" stroke-linecap="round"/>
<path d="M148.864 126.554C151.928 143.034 152.924 159.975 154.489 176.649C154.631 178.163 154.072 179.417 155.123 179.943" stroke="#2F333F" stroke-width="1.10458" stroke-linecap="round"/>
<path d="M124.931 189.884C149.693 181.349 174.792 173.838 200.329 167.956C213.423 164.94 226.444 162.621 239.808 161.533" stroke="#2F333F" stroke-width="1.10458" stroke-linecap="round"/>
<path d="M123.458 191.357C123.683 192.33 124.364 193.24 125.013 193.975C127.897 197.243 130.596 200.896 133.768 203.875C141.262 210.916 152.703 211.997 162.446 212.998C178.265 214.624 193.673 210.674 208.102 204.162C219.597 198.974 237.928 189.325 238.294 174.42C238.341 172.531 237.399 171.034 237.844 169.142C238.482 166.431 240.155 164.991 240.544 162.269" stroke="#2F333F" stroke-width="1.10458" stroke-linecap="round"/>
<path d="M201.884 135.759C197.608 136.828 196.79 142.791 200.288 145.373C204.518 148.495 212.548 143.787 209.33 138.623C208.251 136.892 201.463 131.389 199.552 134.573C198.877 135.699 200.339 137.151 200.043 138.337" stroke="#FF6600" stroke-width="1.10458" stroke-linecap="round"/>
<path d="M204.829 148.278C205.281 154.605 206.281 160.471 203.356 166.319" stroke="#FF6600" stroke-width="1.10458" stroke-linecap="round"/>
<path d="M203.357 148.646C200.965 151.881 198.68 155.179 196.361 158.465C196.069 158.878 195.625 159.729 195.625 158.956" stroke="#FF6600" stroke-width="1.10458" stroke-linecap="round"/>
<path d="M201.884 149.382C204.338 150.434 206.322 153.05 208.634 154.455C211.368 156.117 214.706 156.848 217.716 157.851" stroke="#FF6600" stroke-width="1.10458" stroke-linecap="round"/>
<path d="M196.729 140.546C195.304 140.118 192.507 139.773 192.106 137.928C191.704 136.076 193.164 135.268 194.765 135.268C195.081 135.268 198.266 135.992 198.488 135.677C198.853 135.161 196.632 131.245 196.545 130.38C196.059 125.52 203.855 127.776 205.586 129.868C206.303 130.735 206.195 131.7 206.691 132.609C207.065 133.295 208.269 133.859 208.88 134.286" stroke="#FF6600" stroke-width="1.10458" stroke-linecap="round"/>
<path d="M211.825 139.809H211.457" stroke="#FF6600" stroke-width="1.10458" stroke-linecap="round"/>
<path d="M208.143 138.705C208.818 138.705 209.493 138.705 210.168 138.705C212.319 138.705 213.398 134.519 212.786 132.896C212.146 131.197 209.202 130.994 208.225 132.446C207.091 134.131 207.889 134.627 206.302 132.814" stroke="#FF6600" stroke-width="1.10458" stroke-linecap="round"/>
<path d="M204.461 206.453C211.916 204.764 219.279 202.885 226.676 200.971C238.328 197.954 250.552 194.245 262.677 194.036C270.043 193.909 277.41 195.228 284.544 196.961C290.575 198.427 295.681 198.773 301.992 198.23C308.131 197.701 314.403 197.096 319.87 194.016C330.598 187.972 339.452 177.784 352.516 177.12C362.043 176.635 371.019 180.852 378.781 185.936C383.054 188.735 381.608 187.976 384.611 190.252C385.5 190.926 385.245 190.594 385.245 189.884" stroke="#2F333F" stroke-width="1.10458" stroke-linecap="round"/>
<path d="M26.2549 197.616C31.6214 196.315 37.0668 194.492 42.5782 193.914C53.6619 192.75 64.7842 194.737 75.3271 198.066C88.5049 202.227 104.048 209.033 117.935 203.998C120.08 203.22 121.812 202.036 123.479 200.541C124.022 200.053 124.795 199.308 125.565 199.907C126.654 200.754 124.342 202.623 123.826 203.139" stroke="#2F333F" stroke-width="1.10458" stroke-linecap="round"/>
<path d="M123.826 200.93C125.229 200.93 126.638 200.825 127.979 200.378C129.448 199.888 130.201 199.702 128.245 199.457" stroke="#2F333F" stroke-width="1.10458" stroke-linecap="round"/>
<path d="M55.3423 215.289C58.9261 217.728 60.9694 217.841 62.9516 213.612C64.0053 211.364 64.5357 213.55 65.2835 214.921" stroke="#2F333F" stroke-width="1.10458" stroke-linecap="round"/>
<path d="M322.652 215.289C313.721 215.342 310.576 215.561 301.624 214.798C292.808 214.047 283.905 211.583 275.032 211.669C267.606 211.74 263.515 215.292 258.586 220.076" stroke="#2F333F" stroke-width="1.10458" stroke-linecap="round"/>
<path d="M142.604 216.026C151.664 223.904 163.674 229.12 173.901 235.172" stroke="#2F333F" stroke-width="1.10458" stroke-linecap="round"/>
<path d="M233.549 218.235C231.774 219.055 228.063 221.099 225.776 221.099C221.057 221.099 226.048 219.695 222.503 218.235" stroke="#2F333F" stroke-width="1.10458" stroke-linecap="round"/>
<path d="M274.05 29.351C269.59 36.6708 266.674 39.8008 265.5 48.7017C264.631 55.2841 265.903 65.5844 268.445 71.7752C273.642 84.4331 286.941 87.4506 299.373 85.4803C306.943 84.2806 313.865 80.8435 320.361 76.9709C323.777 74.934 336.669 65.9701 340.079 62.8567C342.538 60.6127 345.697 57.7671 343.107 54.2246C341.854 52.5113 339.934 51.3856 338.177 50.1949C332.442 46.3079 328.555 44.5942 321.833 42.5651C313.795 40.1385 305.362 40.1728 297.328 37.8604C292.676 36.5216 288.56 33.9937 283.95 32.542C280.41 31.4273 276.734 30.5124 273.088 29.801C272.919 29.768 272.404 29.7192 272.577 29.7192" stroke="#2F333F" stroke-width="1.10458" stroke-linecap="round"/>
<path d="M287.673 103.358L297.983 126.554" stroke="#2F333F" stroke-width="1.10458" stroke-linecap="round"/>
<path d="M330.752 95.2578L339.22 104.094" stroke="#2F333F" stroke-width="1.10458" stroke-linecap="round"/>
<path d="M244.226 102.622C247.822 99.6637 249.994 97.7012 253.922 95.176C262.97 89.3593 255.487 94.7448 264.845 89.3667" stroke="#2F333F" stroke-width="1.10458" stroke-linecap="round"/>
<path d="M239.808 42.2378C243.433 46.2788 247.31 49.9 251.222 53.6518" stroke="#2F333F" stroke-width="1.10458" stroke-linecap="round"/>
<path d="M300.192 21.9871C306.174 15.303 311.693 8.33938 316.76 1" stroke="#2F333F" stroke-width="1.10458" stroke-linecap="round"/>
<path d="M326.702 20.1462C328.689 20.8262 331.284 19.5581 333.022 18.8575C338.047 16.8323 342.654 14.0572 347.28 11.2686C350.96 9.04952 354.97 6.94984 358.387 4.31378C359.208 3.68038 359.103 3.62984 359.103 2.841" stroke="#2F333F" stroke-width="1.10458" stroke-linecap="round"/>
<path d="M27.2595 199.063L1 200.354" stroke="#2F333F" stroke-width="1.10458" stroke-linecap="round"/>
<path d="M370.355 181.413C379.629 185.395 388.734 188.682 398.504 191.266C404.763 192.921 411.058 194.35 417.278 196.145C418.694 196.553 419 196.866 419 195.619" stroke="#2F333F" stroke-width="1.10458" stroke-linecap="round"/>
<path d="M27.6899 197.771C26.9633 197.967 26.2774 197.744 25.6331 197.867C23.6558 198.243 21.4757 201.422 20.0847 202.698C18.1662 204.458 18.7165 203.531 19.0802 202.076" stroke="#2F333F" stroke-width="1.10458" stroke-linecap="round"/>
</svg>
