<svg width="14" height="21" viewBox="0 0 14 21" fill="none" xmlns="http://www.w3.org/2000/svg">
<path d="M3.5 21C5.43721 21 7 19.4372 7 17.5V14H3.5C1.56279 14 0 15.5628 0 17.5C0 19.4372 1.56279 21 3.5 21Z" fill="#0ACF83"/>
<path d="M0 10.5C0 8.56279 1.56279 7 3.5 7H7V14H3.5C1.56279 14 0 12.4372 0 10.5Z" fill="#A259FF"/>
<path d="M0 3.5C0 1.56279 1.56279 0 3.5 0H7V7H3.5C1.56279 7 0 5.43721 0 3.5Z" fill="#F24E1E"/>
<path d="M7 0H10.5C12.4372 0 14 1.56279 14 3.5C14 5.43721 12.4372 7 10.5 7H7V0Z" fill="#FF7262"/>
<path d="M14 10.5C14 12.4372 12.4372 14 10.5 14C8.56279 14 7 12.4372 7 10.5C7 8.56279 8.56279 7 10.5 7C12.4372 7 14 8.56279 14 10.5Z" fill="#1ABCFE"/>
</svg>
