<?xml version="1.0" encoding="UTF-8"?>
<svg width="21" height="21" viewBox="0 0 21 21" fill="none" xmlns="http://www.w3.org/2000/svg">
    <path d="M19.0391 0H1.96094C0.878906 0 0 0.878906 0 1.96094V19.0391C0 20.1211 0.878906 21 1.96094 21H19.0391C20.1211 21 21 20.1211 21 19.0391V1.96094C21 0.878906 20.1211 0 19.0391 0ZM6.58594 17.5781H3.42188V8.09766H6.58594V17.5781ZM5.00391 6.76172C4.02734 6.76172 3.24609 5.98047 3.24609 5.00391C3.24609 4.02734 4.02734 3.24609 5.00391 3.24609C5.98047 3.24609 6.76172 4.02734 6.76172 5.00391C6.76172 5.98047 5.98047 6.76172 5.00391 6.76172ZM17.5781 17.5781H14.4141V12.8906C14.4141 11.7422 14.3906 10.2539 12.8086 10.2539C11.2031 10.2539 10.9688 11.5195 10.9688 12.8203V17.5781H7.80469V8.09766H10.8281V9.45703H10.875C11.2969 8.67578 12.3086 7.85156 13.8203 7.85156C17.0391 7.85156 17.5781 9.92578 17.5781 12.6094V17.5781Z" fill="#0076B2"/>
</svg> 