<svg width="20" height="21" viewBox="0 0 20 21" fill="none" xmlns="http://www.w3.org/2000/svg">
<path d="M11.937 0.176331L14.0436 0.190203C14.0832 0.221013 14.1153 0.241176 14.1494 0.256339C14.5312 0.428938 14.9451 0.552499 15.2892 0.781879C16.2867 1.44485 17.2608 2.14347 18.2343 2.84177C18.6868 3.16552 19.1328 3.50265 19.55 3.8693C19.86 4.14159 19.9992 4.52792 20 4.9399L19.9992 17.9043C19.9987 18.0852 19.9677 18.2712 19.9174 18.445C19.6887 19.2377 19.1814 19.7802 18.3831 19.992C17.962 20.1034 17.5173 20.1381 17.0807 20.1741C16.3995 20.2307 15.7158 20.2585 15.0333 20.2994L13.7422 20.3801L11.6749 20.5017L10.404 20.5811L8.3165 20.7021L7.23768 20.7463C7.203 20.748 7.1709 20.7966 7.13815 20.8237C6.3171 20.8237 5.49669 20.8237 4.6687 20.8105C4.62902 20.779 4.59885 20.7537 4.56353 20.7437C4.06315 20.5987 3.64359 20.3222 3.32098 19.9207C2.87415 19.3656 2.44959 18.7935 2.01987 18.2252C1.49175 17.5269 0.949918 16.8389 0.450832 16.1206C0.157484 15.7009 0.000361139 15.2011 0.000784749 14.689C-0.000621624 10.86 -0.000137691 7.03109 0.00223653 3.20213C0.00223653 3.0918 0.0215934 2.98034 0.0406277 2.87065C0.240971 1.69181 1.11364 1.06288 2.1515 0.946251C2.69026 0.885761 3.23274 0.858661 3.77409 0.822851L5.20488 0.740261L5.81995 0.699934L7.67498 0.539917L8.70332 0.459264L10.4066 0.338283L11.8374 0.253758C11.8722 0.251339 11.9043 0.20343 11.937 0.176331ZM3.82248 18.5547C3.9083 18.6662 4.00395 18.772 4.07896 18.8906C4.44255 19.4595 4.96373 19.6661 5.6259 19.6221L10.1117 19.355L15.16 19.0499L17.6735 18.888C18.4184 18.8281 18.7781 18.4255 18.7926 17.6782V17.5169L18.7983 5.27961C18.7989 4.91103 18.6716 4.65326 18.3768 4.44727L14.8241 1.94378C14.2526 1.52793 13.6459 1.33387 12.9433 1.38936L8.9648 1.68359L4.80484 1.99039L2.19376 2.19396C1.66628 2.24236 1.33931 2.56497 1.24479 3.08244C1.2218 3.21454 1.21063 3.34841 1.2114 3.48249L1.20059 14.1678C1.19688 14.8679 1.4111 15.4502 1.83017 15.9857L3.82248 18.5547Z" fill="white"/>
<path d="M3.81314 18.544L1.83019 15.9856C1.41112 15.4501 1.1969 14.8679 1.20061 14.1679L1.21142 3.48254C1.21142 3.34898 1.22142 3.21348 1.24481 3.0825C1.33933 2.56519 1.6663 2.24257 2.19378 2.19402L4.80486 1.99045L8.96498 1.68364L12.9433 1.38942C13.646 1.33393 14.2526 1.52798 14.8241 1.94383C15.9956 2.79634 17.1889 3.61869 18.3768 4.44732C18.6717 4.65331 18.7989 4.91108 18.7983 5.27967L18.7926 17.5176V17.6789C18.7781 18.4256 18.4184 18.8282 17.6735 18.888C16.8368 18.9555 15.9981 18.999 15.16 19.05L10.1117 19.3549L5.62592 19.6222C4.96375 19.6662 4.44257 19.4596 4.07898 18.8906C4.00397 18.7721 3.90831 18.6662 3.81314 18.544ZM4.84648 11.1251V16.527L4.84777 17.5345C4.85648 17.9863 5.07779 18.2114 5.52945 18.2372C5.64285 18.2435 5.75754 18.2396 5.87159 18.2327L9.65296 18.0097L16.8739 17.5969C17.3239 17.5718 17.5319 17.3745 17.574 16.9285C17.5822 16.8483 17.5796 16.7672 17.5796 16.6865L17.5802 6.28591C17.5802 6.22542 17.5822 6.16493 17.5785 6.10444C17.5514 5.69052 17.3736 5.52163 16.9623 5.54357L13.2408 5.75795C11.4976 5.85935 9.75454 5.96141 8.01149 6.06411L5.39718 6.22106C5.06392 6.24235 4.91326 6.38608 4.86293 6.71192C4.85102 6.79833 4.84573 6.88553 4.84712 6.97275L4.84648 11.1251ZM14.0687 2.61987C13.7531 2.44856 13.4103 2.39178 13.0573 2.4113C12.5149 2.44098 11.9724 2.48566 11.4298 2.52486L3.69523 3.08686C3.46149 3.10379 3.22647 3.12073 2.9958 3.16251C2.91837 3.17638 2.82062 3.25446 2.79675 3.32511C2.779 3.37479 2.85724 3.47512 2.9145 3.52997C3.02048 3.63127 3.14259 3.71628 3.25808 3.80774C3.53215 4.02389 3.82379 4.22101 4.07527 4.45991C4.55225 4.91286 5.10731 5.01755 5.74319 4.97157L10.7494 4.65767L16.1386 4.33441C16.1878 4.33199 16.237 4.31683 16.3453 4.29666C16.2464 4.19391 16.189 4.11519 16.1141 4.0597C15.8501 3.86471 15.5835 3.67317 15.3145 3.48513C14.9012 3.19391 14.4859 2.90549 14.0687 2.61987Z" fill="black"/>
<path d="M4.84652 11.1048L4.84717 6.9726C4.84717 6.88549 4.84975 6.79742 4.86298 6.71176C4.9133 6.38592 5.06397 6.24236 5.39723 6.22091L8.01154 6.06395L13.2408 5.75779L16.9622 5.54341C17.3737 5.52148 17.5514 5.69085 17.5784 6.10428C17.5822 6.16477 17.5803 6.22526 17.5803 6.28575L17.5796 16.6864L17.574 16.9283C17.5319 17.3743 17.324 17.5716 16.8739 17.5968L9.653 18.0096L5.87163 18.2325L5.52966 18.237C5.07784 18.2112 4.85652 17.9862 4.84781 17.535L4.84652 16.5268V11.1048ZM12.2289 11.1155L10.1532 7.95302C10.0808 7.84269 10.0097 7.80623 9.87609 7.82075L8.99132 7.88044L7.36373 7.99964C6.96368 8.03626 6.72172 8.41243 6.83254 8.80247L7.69457 8.87619V15.8597L7.10741 16.0253C6.84706 16.1021 6.73559 16.3215 6.82318 16.6018L8.80856 16.4878L9.59057 16.4236C9.92771 16.3681 10.1092 16.1615 10.1545 15.8243L9.06891 15.5767V10.3241L9.14956 10.437L11.6447 14.3329C12.0114 14.9018 12.3881 15.4644 12.7745 16.0202C13.0498 16.4154 13.4557 16.5364 13.9118 16.438C14.1974 16.377 14.4714 16.261 14.7511 16.1708C14.8968 16.1236 14.9465 16.0366 14.9458 15.8734L14.941 8.6952C14.941 8.27564 14.941 8.27564 15.356 8.19192C15.7757 8.1074 15.8809 7.9398 15.7851 7.4912L13.2768 7.64364C13.0038 7.66316 12.7972 7.89124 12.7557 8.15659C12.7354 8.28451 12.7619 8.355 12.915 8.36387L13.6744 8.44775V13.3159C13.1934 12.5821 12.7115 11.8488 12.2289 11.1161V11.1155ZM14.0825 2.62665C14.4943 2.911 14.9049 3.19706 15.3142 3.48481C15.5833 3.6729 15.8499 3.8645 16.114 4.05955C16.1889 4.11504 16.2463 4.19376 16.3452 4.29651L16.1385 4.33425L10.7492 4.65751L5.74307 4.97142C5.1072 5.01739 4.55214 4.9127 4.07515 4.45975C3.82367 4.22102 3.53203 4.02374 3.25781 3.80759C3.14247 3.71612 3.02036 3.63112 2.91438 3.52965C2.85712 3.47481 2.77889 3.3748 2.79663 3.32479C2.8205 3.2543 2.9189 3.17623 2.99568 3.16236C3.22635 3.12074 3.46138 3.10364 3.69511 3.0867L11.4298 2.52471L13.0574 2.41115C13.4102 2.39179 13.753 2.44825 14.0825 2.62665Z" fill="white"/>
<path d="M12.2376 11.1275L13.6744 13.3159V8.44766L12.9151 8.36378C12.7619 8.35507 12.7354 8.28458 12.7556 8.15667C12.7972 7.89131 13.004 7.66323 13.2766 7.64371L15.7851 7.49127C15.8809 7.93971 15.7757 8.10747 15.356 8.19183C14.9408 8.27507 14.9408 8.27506 14.9408 8.69527L14.9458 15.8734C14.9464 16.0367 14.8968 16.1236 14.7511 16.1709L13.9118 16.438C13.4556 16.5358 13.0498 16.4154 12.7746 16.0202C12.3884 15.4643 12.0117 14.9018 11.6448 14.333L9.14938 10.4369C9.1318 10.4092 9.11163 10.3834 9.06873 10.3242V15.5768L10.1545 15.8244C10.1092 16.1615 9.92769 16.368 9.59056 16.4237C9.33343 16.4658 9.06953 16.4721 8.80854 16.4879L6.82317 16.6019C6.73558 16.3216 6.84704 16.1022 7.10739 16.0254L7.69455 15.8597V8.87626L6.83252 8.80254C6.7217 8.4125 6.96366 8.03633 7.36371 7.99971C7.90505 7.94922 8.44882 7.91841 8.9913 7.88067C9.28617 7.8605 9.58233 7.85292 9.87607 7.82082C10.0096 7.80631 10.0809 7.84276 10.1532 7.95309L12.2376 11.1275Z" fill="black"/>
</svg>
